<?xml version="1.0" encoding="utf-8"?>
<!-- Generator: Adobe Illustrator 27.5.0, SVG Export Plug-In . SVG Version: 6.00 Build 0)  -->
<svg version="1.1" id="Layer_1" xmlns="http://www.w3.org/2000/svg" xmlns:xlink="http://www.w3.org/1999/xlink" x="0px" y="0px"
	 viewBox="0 0 205.707 166.733" style="enable-background:new 0 0 205.707 166.733;" xml:space="preserve">
<g>
	<path style="fill:#808285;" d="M181.904,93.045c28.596-47.383,13.953-78.742,13.953-78.742c3.592-3.73,3.454-9.946,3.454-9.946
		c-2.625,7.322-25.557,14.229-39.786,18.788c-14.229,4.559-20.7,12.605-20.7,12.605c-18.721-14.153-37.084-8.33-37.084-8.33
		c8.33-2.508,16.392-8.151,16.392-8.151c-20.513-1.971-29.739,7.883-29.739,7.883c5.016-8.241,12.196-10.8,12.196-10.8
		c-16.64,1.536-31.233,17.152-31.233,17.152S50.678,6.548,9.717,10.407c0,0,5.478,1.868,9.587,5.478c0,0-8.217,32.246,12.824,76.272
		c0,0-3.356,3.926-10.625,2.148c0,0,1.856,4.176,8.352,4.408c0,0-3.48,6.806-16.859,9.203c0,0,3.712,5.181,18.097,2.475
		c0,0-5.413,3.016-11.987,2.552c0,0,6.109,5.414,15.544,3.557c0,0-6.574,4.717-16.163,1.16c0,0,6.264,18.096,23.665,15.003
		c0,0-4.64,3.325-13.843,1.005c0,0,8.662,7.502,19.257,12.374c10.595,4.872,24.438,6.187,30.47,8.507
		c6.032,2.32,17.787,11.678,46.479,4.795c0,0-3.094,0.541-7.502,0.541c0,0,33.486-4.64,46.865-8.894c0,0-2.629-0.232-3.789-0.851
		c0,0,12.915-0.232,23.278-13.302c0,0-8.894,3.248-17.4,0.541c0,0,15.312,5.336,27.222-17.942c0,0-8.816,5.491-15.931,0.851
		c0,0,7.424,3.557,19.179-11.755c0,0-9.28-0.309-15.854-7.966c0,0,7.888,4.021,11.523-1.392c0,0-6.419,2.011-10.286-5.336
		L181.904,93.045z"/>
	<path style="fill:#9A9FA8;" d="M28.307,133.668c0,0,5.375,4.653,12.834,9.011c0.498-0.928,1.13-1.786,1.894-2.546
		c0.773-0.768,1.639-1.438,2.53-2.062c0.865-0.606,1.749-1.206,2.66-1.741c1.6-0.939,3.286-1.79,4.721-2.981
		c0.583-0.484,1.255-1.084,1.287-1.899c0.016-0.406-0.232-0.606-0.592-0.725c-0.427-0.141-0.878-0.196-1.31-0.321
		c-0.145-0.042-0.237-0.226-0.147-0.362c0.152-0.23,0.322-0.448,0.501-0.657c1.906-2.225,4.618-3.742,6.142-6.303
		c0.694-1.167,0.937-2.507,0.301-3.757c-0.683-1.34-1.907-2.206-3.28-2.755c-2.987-1.197-6.397-1.253-9.569-1.093
		c-2.481,0.125-4.939,0.498-7.383,0.93c-2,0.353-3.996,0.765-6.008,1.054c-2.566,1.159-7.759,2.665-14.402,0.2
		c0,0,6.264,18.096,23.665,15.003C42.15,132.663,37.51,135.988,28.307,133.668z"/>
	<path style="fill:#9A9FA8;" d="M31.091,110.39c0,0-5.413,3.016-11.987,2.552c0,0,0.97,0.857,2.729,1.772
		c0.052-0.001,0.104,0,0.156-0.001c3.238-0.038,6.459-0.292,9.58-1.207c3.056-0.896,5.922-2.216,8.665-3.827
		c1.84-1.081,3.572-2.317,5.46-3.315c1.763-0.931,3.545-1.829,5.26-2.848c0.849-0.504,1.687-1.034,2.472-1.635
		c0.598-0.457,1.205-0.968,1.638-1.59c0.343-0.493,0.498-0.983,0.338-1.573c-0.178-0.654-0.603-1.202-1.096-1.654
		c-1.308-1.199-3.086-1.874-4.747-2.415c-1.791-0.583-3.634-1.001-5.483-1.356c-1.91-0.367-3.842-0.764-5.776-0.962
		c-2.207-0.226-4.41-0.153-6.575,0.212c-1.083,0.944-4.394,3.185-10.224,1.759c0,0,1.856,4.176,8.352,4.408
		c0,0-3.48,6.806-16.859,9.203C12.995,107.916,16.707,113.097,31.091,110.39z"/>
	<path style="fill:#9A9FA8;" d="M163.796,130.416c-0.354,0.173-0.732,0.281-1.117,0.362c-0.99,0.208-2.007,0.274-3.01,0.386
		c-0.946,0.105-1.977,0.199-2.85,0.607c-0.666,0.311-1.198,0.953-0.807,1.694c0.418,0.791,1.309,1.325,2.055,1.761
		c0.816,0.477,1.676,0.887,2.524,1.304c1.364,0.671,2.767,1.258,4.198,1.771c2.824,1.012,5.746,1.737,8.701,2.248
		c1.913,0.331,3.841,0.562,5.774,0.728c1.387-1.285,2.765-2.752,4.101-4.437c0,0-8.68,3.166-17.092,0.633
		c2.214,0.598,15.993,3.311,26.914-18.033c0,0-8.816,5.491-15.931,0.851c0,0,1.628,0.779,4.565,0.037
		c-2.6-0.03-5.188-0.412-7.773-0.654c-2.875-0.269-5.767-0.423-8.622-0.877c-1.333-0.212-2.65-0.528-3.982-0.752
		c-0.846-0.142-1.696-0.27-2.551-0.34c-0.606-0.049-1.271-0.113-1.87,0.032c-0.352,0.085-0.483,0.221-0.443,0.583
		c0.043,0.385,0.345,0.82,0.601,1.141c0.922,1.157,2.147,2.092,3.327,2.969c2.175,1.618,4.492,3.008,6.777,4.459
		c0.16,0.102,0.158,0.323,0,0.426c-1.495,0.967-3.32,0.715-4.957,1.226c0.324,0.631,0.978,1.058,1.519,1.487
		C163.966,130.124,163.929,130.351,163.796,130.416z"/>
	<path style="fill:#9A9FA8;" d="M196.435,108.534c0,0-9.28-0.309-15.854-7.966c0,0,7.888,4.021,11.523-1.392
		c0,0-6.354,1.987-10.227-5.23c-1.882-0.417-3.776-0.779-5.676-1.097c-1.764-0.295-3.545-0.541-5.331-0.657
		c-0.933-0.061-1.884-0.096-2.815,0.019c-0.548,0.068-1.43,0.186-1.655,0.792c-0.29,0.78,0.762,1.513,1.283,1.892
		c0.685,0.498,1.539,0.903,2.106,1.544c0.128,0.145,0.071,0.348-0.109,0.412c-0.524,0.186-1.058,0.341-1.599,0.469
		c-2.181,0.517-4.437,0.642-6.605,1.221c-1.082,0.289-2.111,0.695-3.073,1.273c-0.564,0.339-1.212,0.765-1.499,1.384
		c-0.538,1.161,0.886,2.336,1.641,2.987c1.598,1.379,3.371,2.581,5.163,3.69c3.65,2.26,7.564,4.074,11.584,5.572
		c2.028,0.756,4.084,1.432,6.159,2.045c2.005,0.592,4.031,1.182,6.085,1.581c0.164,0.032,0.331,0.059,0.496,0.089
		C190.489,115.338,193.307,112.609,196.435,108.534z"/>
	<path style="fill:#9A9FA8;" d="M100.589,16.35c-13.525,1.248-25.697,11.798-29.78,15.705c-0.364,0.646-0.693,1.316-0.951,2.009
		c-0.174,0.466-0.308,0.967-0.27,1.469c0.156,2.055,3.334,1.907,4.752,1.83c2.994-0.164,5.96-0.859,8.865-1.564
		c1.302-0.316,2.6-0.653,3.901-0.974c0.814-0.201,1.64-0.432,2.477-0.518c0.16-0.016,0.28,0.171,0.238,0.312
		c-0.482,1.592-1.48,2.974-2.32,4.389c-0.755,1.272-1.501,2.655-1.546,4.168c-0.025,0.841,0.075,1.84,1.121,1.836
		c0.971-0.004,1.955-0.493,2.833-0.858c0.938-0.39,1.889-0.83,2.904-0.966c0.141-0.019,0.236,0.128,0.246,0.246
		c0.073,0.848,0.139,1.696,0.198,2.545c0.211,3.044,0.367,6.097,0.473,9.146c0.059,1.695,0.074,3.391,0.205,5.083
		c0.143,1.844,0.337,3.818,1.092,5.528c0.443,1.003,1.238,1.987,2.443,1.86c1.049-0.11,1.99-0.868,2.742-1.55
		c1.168-1.06,2.17-2.303,3.106-3.568c2.214-2.994,4.107-6.222,5.937-9.46c0.783-1.386,1.549-2.781,2.322-4.173
		c0.491-0.884,0.969-1.786,1.53-2.63c0.099-0.149,0.332-0.17,0.426,0c0.509,0.922,1.199,2.003,2.193,2.458
		c0.889,0.406,1.743-0.211,2.1-1.039c0.316-0.733,0.326-1.595,0.314-2.379c-0.025-1.691-0.376-3.363-0.385-5.051
		c-0.001-0.124,0.114-0.258,0.246-0.246c0.452,0.041,0.901,0.104,1.346,0.191c3.628,0.712,6.843,2.934,10.561,3.267
		c3.525,0.316,7.52-1.43,8.588-5.031c0.259-0.875,0.331-1.78,0.268-2.681c-18.7-14.094-37.023-8.285-37.023-8.285
		c8.33-2.508,16.392-8.151,16.392-8.151c-20.513-1.971-29.739,7.883-29.739,7.883C93.409,18.909,100.589,16.35,100.589,16.35z"/>
	<path style="opacity:0.6;fill:#808285;" d="M76.124,123.796c-0.817-0.024-1.641,0.189-2.449,0.296
		c-0.865,0.115-1.735,0.195-2.607,0.226c-1.796,0.065-3.598-0.08-5.364-0.404c-1.743-0.32-3.446-0.832-5.085-1.505
		c-0.811-0.333-1.597-0.714-2.371-1.122c-0.798-0.421-1.594-0.966-2.431-1.298c-0.266-0.106-0.781,0.214-0.539,0.507
		c0.54,0.653,1.422,1.159,2.146,1.586c0.806,0.475,1.656,0.885,2.514,1.254c1.674,0.718,3.432,1.239,5.22,1.582
		c1.798,0.345,3.629,0.491,5.459,0.454c0.939-0.019,1.878-0.088,2.807-0.224c0.888-0.13,1.846-0.271,2.652-0.682
		C76.317,124.344,76.584,123.81,76.124,123.796z"/>
	<path style="opacity:0.6;fill:#808285;" d="M154.586,111.476c-0.273,3.844-2.622,7.324-5.84,9.366
		c-3.743,2.375-8.304,2.694-12.608,2.275c-0.442-0.043-1.091,0.671-0.434,0.799c6.93,1.356,15.003-1.071,18.576-7.52
		c0.9-1.625,1.435-3.424,1.516-5.28C155.823,110.496,154.625,110.929,154.586,111.476z"/>
	<path style="opacity:0.6;fill:#808285;" d="M94.104,110.375c-0.083-0.957-0.192-1.911-0.328-2.862
		c-0.287-2.012-0.691-4.007-1.209-5.973c-0.499-1.895-1.101-3.758-1.82-5.581c-0.742-1.88-1.575-3.776-2.713-5.45
		c-0.172-0.253-0.698,0.015-0.589,0.303c0.705,1.872,1.55,3.688,2.242,5.568c0.69,1.873,1.288,3.785,1.774,5.721
		c0.477,1.901,0.849,3.828,1.112,5.771c0.129,0.953,0.231,1.91,0.308,2.868c0.075,0.939-0.048,2.066,0.266,2.956
		c0.164,0.464,0.951-0.003,1.027-0.309C94.407,112.451,94.186,111.326,94.104,110.375z"/>
	<path style="opacity:0.6;fill:#808285;" d="M106.286,117.734c-0.32-0.336-0.928-0.351-1.364-0.439
		c-0.47-0.094-0.94-0.185-1.413-0.263c-1.04-0.172-2.091-0.291-3.145-0.311c-1.915-0.036-3.802,0.287-5.535,1.125
		c-0.564,0.273-0.248,0.846,0.312,0.608c1.652-0.702,3.501-0.841,5.276-0.713c0.916,0.066,1.823,0.206,2.725,0.375
		c0.87,0.163,1.856,0.559,2.732,0.379C106.175,118.433,106.562,118.024,106.286,117.734z"/>
	<path style="opacity:0.6;fill:#808285;" d="M109.432,118.304c-0.044-0.151-0.166-0.206-0.31-0.235
		c-0.222-0.045-0.446-0.105-0.67-0.134c-0.117-0.015-0.234-0.035-0.351-0.037c-0.122-0.003-0.244-0.006-0.367-0.009
		c-0.156-0.004-0.327,0.047-0.429,0.175c-0.035,0.043-0.064,0.092-0.079,0.146c-0.016,0.058,0,0.16,0.057,0.196
		c0.08,0.051,0.161,0.102,0.241,0.152c0.113,0.072,0.229,0.125,0.351,0.179c0.199,0.09,0.417,0.15,0.623,0.222
		c0.308,0.108,0.673-0.048,0.854-0.307C109.425,118.546,109.468,118.432,109.432,118.304z"/>
	<path style="opacity:0.5;fill:#808285;" d="M89.104,119.545c0,0,5.061-21.693-10.364-32.452
		c-15.252-10.637-31.69,8.187-27.405,22.588c4.285,14.401,19.931,13.809,27.206,11.442
		C85.815,118.756,89.104,119.545,89.104,119.545z"/>
	<path style="opacity:0.5;fill:#808285;" d="M116.398,119.545c0,0-5.061-21.693,10.364-32.452
		c15.252-10.637,31.69,8.187,27.405,22.588c-4.285,14.401-19.931,13.809-27.206,11.442
		C119.687,118.756,116.398,119.545,116.398,119.545z"/>
	<path style="opacity:0.5;fill:#808285;" d="M111.135,143.918c-1.268-0.111-2.524-0.346-3.697-0.852
		c-1.365-0.589-2.602-1.484-3.626-2.559c-0.501-0.525-0.939-1.105-1.368-1.691c-0.297-0.407-0.56-0.836-0.775-1.289
		c-0.325,1.009-1.082,1.938-1.677,2.746c-0.721,0.979-1.52,1.933-2.667,2.419c-1.32,0.559-2.779,0.951-4.193,1.182
		c-1.435,0.234-2.912,0.26-4.329-0.101c-0.754-0.192-1.475-0.506-2.214-0.747c-0.593-0.194-1.192-0.364-1.795-0.525
		c0.651,1.102,1.517,2.081,2.463,2.935c1.073,0.969,2.294,1.8,3.707,2.167c2.551,0.663,5.442,0.165,7.778-0.996
		c0.539-0.268,1.054-0.594,1.626-0.792c0.597-0.207,1.198-0.2,1.804-0.038c1.41,0.376,2.619,1.204,3.971,1.718
		c2.459,0.935,5.361,0.847,7.765-0.219c1.144-0.507,2.138-1.286,2.874-2.301c0.514-0.709,0.91-1.49,1.27-2.287
		c-0.909,0.56-1.951,0.894-3.002,1.079C113.761,143.997,112.438,144.031,111.135,143.918z"/>
	<path style="opacity:0.6;fill:#808285;" d="M109.719,126.032c-1.867-0.028-3.726,0.266-5.441,1.025
		c-0.908,0.402-1.703,0.961-2.562,1.448c-0.608,0.345-1.36,0.76-2.092,0.753c-0.097,0.06-0.229,0.06-0.319-0.04
		c-0.069-0.03-0.107-0.083-0.117-0.147c-0.183-0.261-0.39-0.502-0.63-0.713c-1.162-1.023-2.792-1.426-4.286-1.647
		c-1.711-0.253-3.459-0.257-5.167,0.025c-1.883,0.311-3.717,0.95-5.338,1.964c-1.508,0.944-2.803,2.189-3.314,3.939
		c-0.925,3.165,0.756,6.502,3.221,8.459c2.419,1.921,5.677,2.888,8.751,2.582c1.63-0.163,3.173-0.776,4.586-1.587
		c1.535-0.882,2.855-2.07,3.871-3.522c0.11-0.157,0.408-0.168,0.45,0.059c0.064,0.342,0.18,0.666,0.346,0.971
		c0.765,1.403,2.248,2.37,3.646,3.057c1.687,0.829,3.463,1.165,5.342,1.053c1.148-0.069,2.284-0.266,3.413-0.48
		c0.908-0.172,1.816-0.335,2.707-0.584c1.546-0.433,3.169-1.09,4.231-2.347c1.27-1.503,1.395-3.719,1.011-5.566
		c-0.385-1.854-1.225-3.674-2.515-5.072C117.027,126.967,113.259,126.085,109.719,126.032z"/>
	<path style="opacity:0.5;fill:#808285;" d="M29.854,98.713c0,0-3.48,6.806-16.859,9.203c0,0,3.712,5.181,18.097,2.475
		c0,0-5.413,3.016-11.987,2.552c0,0,6.109,5.414,15.544,3.557c0,0-6.574,4.717-16.163,1.16c0,0,6.264,18.096,23.665,15.003
		c0,0-4.64,3.325-13.843,1.005c0,0,8.662,7.502,19.257,12.374c10.595,4.872,24.438,6.187,30.47,8.507
		c6.032,2.32,17.787,11.678,46.479,4.795c0,0-3.094,0.541-7.502,0.541c0,0,33.486-4.64,46.865-8.894c0,0-2.629-0.232-3.789-0.851
		c0,0,12.915-0.232,23.278-13.302c0,0-8.68,3.166-17.092,0.633c-0.201-0.054-0.308-0.091-0.308-0.091
		c0.103,0.033,0.206,0.06,0.308,0.091c2.214,0.598,15.993,3.311,26.914-18.033c0,0-8.816,5.491-15.931,0.851
		c0,0,7.424,3.557,19.179-11.755c0,0-9.28-0.309-15.854-7.966c0,0,7.494,3.817,11.239-1.005c-11.586,2.128-15.923-2.631-16.393-3.2
		c21.981,26.78-7.024,18.687-7.024,18.687c11.481,5.377,6.419,9.366,6.419,9.366c14.86,8.789-14.23,11.146-14.23,11.146
		c26.336,12.906-14.341,11.37-14.341,11.37c9.581,3.816-24.842,9.195-24.842,9.195c14.537-4.302,7.608-10.154,7.608-10.154
		c5.154,6.677-19.328,13.248-34.951,10.696c-15.623-2.552,0-7.338,0-7.338c-71.639-3.669-44.456-18.36-44.456-18.36
		c-34.994-2.333-5.471-18.329-5.471-18.329c-17.428,6.805-8.005-5.316-8.005-5.316c-25.79,4.131,8.005-13.023,8.005-13.023
		c-14.589,5.605-22.638,0-22.638,0S23.358,98.481,29.854,98.713z"/>
	<path style="fill:#808285;" d="M199.31,4.356c-2.625,7.322-25.557,14.229-39.786,18.788c-14.229,4.559-20.7,12.605-20.7,12.605
		c-18.721-14.153-37.084-8.33-37.084-8.33c8.33-2.508,16.392-8.151,16.392-8.151c-20.513-1.971-29.739,7.883-29.739,7.883
		c5.016-8.241,12.196-10.8,12.196-10.8c-16.64,1.536-31.233,17.152-31.233,17.152S50.678,6.548,9.717,10.407
		c0,0,0.336,0.115,0.903,0.341c11.142,0.323,39.766,3.359,57.259,25.121c0,0,2.497-1.446,8.412,0c0,0-1.474-1.765-4.204-2.066
		c0,0,9.316-10.463,20.998-14.118c0,0-6.951,3.655-7.166,11.681c0,0,10.535-11.18,28.522-11.108c0,0-8.671,2.078-17.701,9.03
		c0,0,31.676-4.372,44.647,14.619c0,0-0.502-9.746,9.388-13.903c9.89-4.157,26.659-7.702,37.767-14.206c0,0-5.375,1.952-8.313,2.597
		c0,0,11.538-4.443,16.626-8.958c0,0-6.994,9.871-16.038,13.786c0,0,7.633-1.755,15.178-8.606c-0.086-0.205-0.137-0.315-0.137-0.315
		C199.448,10.573,199.31,4.356,199.31,4.356z"/>
	<path style="opacity:0.5;fill:#808285;" d="M167.132,32.176c-20.288,17.238-14.826,25.487-14.826,25.487
		c1.302-7.919,11.489-12.508,11.489-12.508c-9.985,6.004-9.594,15.337-9.594,15.337c2.545-4.96,11.682-9.463,16.12-8.745
		c4.438,0.718-9.032,4.438-9.032,4.438c1.034,0.753-1.782,3.857-3.139,5.253c4.567-4.179,11.649-2.707,11.649-2.707
		c-8.092,0.848-7.44,3.85-7.44,3.85c9.137,3.655,0.318,2.188,0.318,2.188c1.691,10.831,15.108,14.147,15.108,14.147
		c7.736-3.758,19.12-29.62,17.573-43.766c-1.547-14.147,0.272-16.973,0.272-16.973c6.787,34.632-13.383,68.691-13.383,68.691
		c-2.184,7.362-5.428,3.556-5.428,3.556c-1.997,5.927,9.108,9.483,9.108,9.483c-3.193,0.53-8.984-1.497-8.984-1.497
		c4.742,11.978,15.16,11.479,15.16,11.479c-7.923,9.857-11.131,6.052-11.131,6.052c2.157,4.742-11.141,2.121-11.141,2.121
		c7.46,5.699,11.923,5.995,13.728,5.77c0.315-0.066,0.627-0.138,0.933-0.218c0,0-0.308,0.14-0.933,0.218
		c-4.108,0.861-8.737,0.589-8.737,0.589c9.046,3.551,12.727,0.629,12.727,0.629c-7.798,12.041-24.518,11.354-24.518,11.354
		c6.613,5.552,15.722,2.87,15.722,2.87c-9.003,11.29-30.32,10.668-30.32,10.668c3.993,1.497,10.054,0.686,10.054,0.686
		c-5.107,1.996-37.077,7.674-37.077,7.674c2.486-0.624,4.502-2.558,4.502-2.558c-14.786,6.551-36.122,2.558-41.238,0
		c-5.116-2.558-0.499-3.993-0.499-3.993c-12.29,0.624-35.685-6.176-44.669-11.916c-8.984-5.74,1.872-1.98,1.872-1.98
		c-3.182-2.915,8.235-6.879,8.235-6.879c-20.588,0.062-26.14-10.044-26.14-10.044c8.921,2.683,18.529-7.424,18.529-7.424
		c-9.171,2.932-16.47,0.749-16.47,0.749c5.802-0.749,10.606-6.925,10.606-6.925c-8.11,2.371-16.845,1.123-16.845,1.123
		c11.479-3.119,15.035-12.79,15.035-12.79c-3.182,1.809-8.671,0.546-8.671,0.546c4.776,0.519,11.007-4.05,11.007-4.05
		S26.901,75.855,22.228,54.88c-4.673-20.975-0.208-32.19-0.208-32.19c-3.427,41.95,14.122,50.191,14.122,50.191
		c0.104,4.295-0.935,4.842-0.935,4.842c7.476-1.869,17.756-16.718,17.756-16.718c-4.569,1.246-7.244-1.246-7.244-1.246
		c16.223-2.7,4.337-5.919,4.337-5.919c9.968,1.557,1.765-5.171,1.765-5.171c9.764,4.968,8.806,1.567,7.285-1.005
		c-0.531-0.47-1.045-1.148-1.47-2.131c0,0,0.791,0.983,1.47,2.131c1.549,1.37,3.236,0.94,3.236,0.94
		c-4.02-25.313-33.246-31.954-33.246-31.954l-3.148-1.09c-2.838,0.916-5.222,0.634-7.066-0.035c0.142,0.118,0.282,0.238,0.421,0.359
		c0,0-8.217,32.246,12.824,76.272c0,0-3.356,3.926-10.625,2.148c0,0,1.856,4.176,8.352,4.408c0,0-3.48,6.806-16.859,9.203
		c0,0,3.712,5.181,18.097,2.475c0,0-5.413,3.016-11.987,2.552c0,0,6.109,5.414,15.544,3.557c0,0-6.574,4.717-16.163,1.16
		c0,0,6.264,18.096,23.665,15.003c0,0-4.64,3.325-13.843,1.005c0,0,8.662,7.502,19.257,12.374
		c10.595,4.872,24.438,6.187,30.47,8.507c6.032,2.32,17.787,11.678,46.479,4.795c0,0-3.094,0.541-7.502,0.541
		c0,0,33.486-4.64,46.865-8.894c0,0-2.629-0.232-3.789-0.851c0,0,12.915-0.232,23.278-13.302c0,0-8.68,3.166-17.092,0.633
		c-0.201-0.054-0.308-0.091-0.308-0.091c0.103,0.033,0.206,0.06,0.308,0.091c2.214,0.598,15.993,3.311,26.914-18.033
		c0,0-8.816,5.491-15.931,0.851c0,0,7.424,3.557,19.179-11.755c0,0-9.28-0.309-15.854-7.966c0,0,7.888,4.021,11.523-1.392
		c0,0-6.419,2.011-10.286-5.336l0.085-0.796c26.693-44.231,15.711-74.494,14.131-78.326
		C187.107,23.74,185.906,16.223,167.132,32.176z"/>
	<path style="fill:#3A271E;" d="M181.729,92.986c2.561-6.323,5.736-12.518,8.32-18.839c5.143-12.571,8.68-25.965,8.613-39.616
		c-0.085-6.791-0.842-13.676-2.973-20.149c-0.033-0.07-0.019-0.156,0.035-0.208c1.828-1.945,2.776-4.559,3.182-7.166
		c0.134-0.876,0.219-1.771,0.219-2.647c0,0,0.36,0.058,0.359,0.059c-2.674,7.452-22.594,13.854-30.039,16.488
		c-4.725,1.659-9.629,2.981-14.253,4.889c-5.845,2.555-11.378,5.807-16.223,10.069c-0.07,0.069-0.175,0.078-0.256,0.032
		c-11.173-6.843-23.794-10.716-36.914-8.303c-0.006,0.007-0.109-0.353-0.112-0.353c2.828-1.146,5.608-2.344,8.332-3.714
		c2.718-1.363,5.387-2.844,8.005-4.41c0.006-0.012,0.089,0.335,0.091,0.334c-1.9-0.022-4-0.036-5.903,0.059
		c-1.321,0.009-3.062,0.216-4.389,0.323c-0.884,0.142-2.011,0.301-2.896,0.429c-3.33,0.644-6.667,1.564-9.757,2.97
		c-2.354,1.075-4.656,2.368-6.638,4.042c-0.139,0.166-0.404-0.054-0.295-0.221c2.596-4.913,6.974-9.08,12.287-10.877
		c0.01-0.012,0.079,0.358,0.083,0.357c-1.488,0.225-2.964,0.494-4.412,0.889c-4.35,1.161-8.467,3.045-12.348,5.319
		c-3.881,2.286-7.552,4.949-10.989,7.867c-1.154,0.967-2.277,1.979-3.362,3.017c-0.064,0.078-0.181,0.087-0.256,0.021
		c-9.669-10.73-22.808-18.165-36.879-21.25c-7.407-1.653-15.016-2.098-22.626-1.803c0,0,0.042-0.359,0.042-0.359
		c1.757,0.637,3.439,1.425,5.063,2.333c1.627,0.906,3.171,1.959,4.582,3.178c0.051,0.036,0.074,0.096,0.066,0.154
		c-0.447,3.239-0.648,6.51-0.75,9.768c-0.073,3.23-0.098,6.526,0.072,9.739c0.409,9.67,1.82,19.469,4.171,28.868
		c0.63,2.699,1.758,6.709,2.624,9.4c0,0,0.71,2.338,0.71,2.338l0.832,2.297c0.945,2.722,2.357,6.54,3.438,9.161
		c0.59,1.529,1.175,3.063,1.713,4.623c0.023,0.065,0.008,0.136-0.031,0.187c-0.617,0.793-1.422,1.368-2.293,1.822
		c-2.618,1.352-5.771,1.309-8.515,0.386c-0.007,0.001,0.213-0.255,0.211-0.255c0.9,1.291,2.185,2.292,3.586,2.994
		c1.443,0.707,3.02,1.048,4.603,1.305c0.114,0.011,0.192,0.115,0.172,0.226c-1.912,3.802-5.905,6.137-9.748,7.616
		c-2.328,0.895-4.788,1.416-7.257,1.728l0.118-0.29c0.502,0.526,1.175,0.952,1.849,1.297c3.503,1.711,7.556,1.831,11.382,1.619
		l2.341-0.215l2.339-0.3c0.103-0.013,0.197,0.06,0.21,0.163c0.009,0.073-0.027,0.142-0.084,0.18
		c-0.873,0.608-1.816,1.073-2.793,1.465c-2.926,1.159-6.181,1.663-9.297,1.11l0.136-0.323c1.116,0.742,2.324,1.368,3.556,1.887
		c3.722,1.614,7.819,2.03,11.831,1.627c0.188-0.03,0.29,0.222,0.143,0.332c-2.288,1.755-5.161,2.595-8.01,2.777
		c-2.847,0.171-5.734-0.42-8.325-1.594c0,0,0.239-0.234,0.239-0.234c1.074,2.279,2.417,4.434,3.955,6.396
		c4.855,6.299,11.55,9.306,19.498,8.485c0.19-0.032,0.29,0.224,0.144,0.332c-0.983,0.771-2.128,1.217-3.295,1.556
		c-3.512,0.938-7.263,0.557-10.696-0.52c-0.018,0.005,0.166-0.319,0.161-0.32c6.742,5.146,13.966,9.807,21.833,13.017
		c3.938,1.541,8.028,2.734,12.16,3.779c5.175,1.36,10.489,2.202,15.578,3.901c1.969,0.757,3.935,1.802,5.871,2.624
		c8.767,3.798,18.476,4.764,27.946,3.987c4.237-0.253,8.428-1.001,12.65-1.671c0.008-0.007,0.075,0.362,0.078,0.362
		c-2.497,0.389-5.009,0.534-7.53,0.544c-0.103,0.003-0.189-0.08-0.19-0.183c-0.001-0.095,0.07-0.172,0.161-0.185
		c8.166-1.466,27.317-4.731,35.209-6.313c3.893-0.777,7.791-1.543,11.623-2.573c0.007-0.007,0.04,0.36,0.042,0.36
		c-1.311-0.155-2.647-0.301-3.857-0.87c-0.093-0.042-0.133-0.153-0.089-0.245c0.029-0.071,0.101-0.101,0.169-0.105
		c2.249-0.234,4.471-0.83,6.606-1.579c5.352-1.873,10.212-5.129,14.191-9.146c0.815-0.798,1.543-1.681,2.339-2.507l0.208,0.289
		c-4.123,1.766-8.755,2.319-13.191,1.705c-1.488-0.191-2.939-0.622-4.326-1.16c-0.008,0.006,0.114-0.353,0.113-0.352
		c1.399,0.284,2.863,0.343,4.287,0.255c10.52-0.586,17.974-9.458,22.707-18.102c0-0.017,0.262,0.241,0.265,0.237
		c-4.361,2.849-10.541,4.331-15.239,1.453c-0.302-0.198-0.6-0.399-0.891-0.604c-0.083-0.058-0.104-0.172-0.046-0.255
		c0.048-0.078,0.149-0.091,0.227-0.066c1.251,0.273,2.597,0.094,3.842-0.172c2.445-0.621,4.671-1.813,6.717-3.328
		c3.142-2.328,5.832-5.258,8.394-8.201l0.141,0.298c-1.549-0.017-3.068-0.26-4.559-0.641c-4.459-1.146-8.665-3.661-11.427-7.386
		c-0.066-0.08-0.053-0.199,0.028-0.263c0.051-0.047,0.135-0.047,0.194-0.025c2.884,0.775,6.028,1.662,8.895,0.468
		c0.905-0.388,1.696-1.023,2.39-1.798l0.209,0.28c-4.354,1.727-9.046-1.22-10.502-5.42c-0.018-0.035-0.027-0.075-0.023-0.112
		L181.729,92.986L181.729,92.986z M182.079,93.104l-0.077,0.756l-0.02-0.106c0.93,1.204,1.852,2.432,3.082,3.339
		c1.941,1.572,4.533,2.18,7.007,1.904c0.148-0.024,0.267,0.163,0.183,0.288c-0.496,0.972-1.291,1.832-2.285,2.393
		c-2.983,1.615-6.758,0.852-9.472-0.945c0.001,0.002,0.225-0.294,0.227-0.284c4.238,4.222,9.761,7.127,15.717,7.899
		c0.144,0.003,0.23,0.188,0.139,0.3c-2.307,3.237-4.916,6.344-8.072,8.787c-1.177,0.914-2.516,1.782-3.857,2.407l-0.689,0.331
		l-0.723,0.264c-1.923,0.682-4.173,1.001-6.063,0.017c0.001,0,0.18-0.332,0.185-0.32c4.968,2.628,10.888,1.55,15.728-0.855
		c0.148-0.103,0.353,0.093,0.26,0.245c-4.239,9.124-12.105,18.756-23.016,18.811c-1.51-0.024-3.013-0.225-4.429-0.783
		c-0.095-0.038-0.14-0.146-0.102-0.241c0.035-0.09,0.134-0.132,0.222-0.109c2.859,0.599,5.74,0.859,8.651,0.695
		c2.891-0.137,5.779-0.578,8.627-1.234c0.103-0.035,0.22,0.025,0.243,0.133c0.013,0.056-0.002,0.113-0.035,0.155
		c-0.36,0.469-1.265,1.586-1.621,2.036c-0.278,0.429-1.405,1.499-1.765,1.915c-1.58,1.635-3.459,3.174-5.362,4.423
		c-4.34,2.874-9.426,4.845-14.671,4.998c0,0,0.084-0.348,0.084-0.348c1.128,0.527,2.477,0.687,3.719,0.829
		c0.102,0.01,0.176,0.101,0.166,0.203c-0.008,0.076-0.061,0.137-0.129,0.159c-3.766,1.341-7.641,2.322-11.527,3.201
		c-11.666,2.588-23.489,4.423-35.366,5.699c0.003,0-0.032-0.375-0.022-0.368c2.493-0.009,5.005-0.156,7.466-0.539
		c0.101-0.016,0.196,0.053,0.212,0.153c0.015,0.094-0.044,0.183-0.133,0.208c-4.125,1.158-8.328,2.154-12.623,2.594
		c-11.423,1.408-21.172-0.476-31.262-6.008c-1.882-0.99-3.842-1.769-5.918-2.264c-6.204-1.548-12.609-2.442-18.796-4.17
		c-10.419-2.82-19.744-8.785-27.776-15.865c-0.147-0.119-0.004-0.372,0.171-0.318c2.303,0.388,4.644,0.675,6.978,0.558
		c2.29-0.129,4.635-0.539,6.707-1.535c0,0,0.14,0.332,0.14,0.332c-8.047,2.207-15.869-1.405-20.463-8.186
		c-1.477-2.138-2.671-4.455-3.409-6.938c-0.03-0.1,0.027-0.205,0.127-0.235c1.389,0.256,2.753,0.704,4.167,0.83
		c4.043,0.544,8.301-0.087,11.936-1.966c0,0,0.144,0.332,0.144,0.332c-0.672,0.163-1.35,0.348-2.041,0.446
		c-2.081,0.316-4.214,0.232-6.271-0.228c-2.73-0.625-5.364-1.857-7.391-3.818c-0.074-0.073-0.074-0.193-0.001-0.267
		c0.041-0.04,0.086-0.055,0.139-0.057c2.042-0.124,4.051-0.33,6.039-0.791c1.977-0.428,3.924-1.031,5.842-1.738
		c0,0,0.127,0.345,0.123,0.344c-4.625,0.972-9.626,1.536-14.208,0.051c-1.518-0.526-3.03-1.263-4.072-2.6
		c-0.084-0.106-0.017-0.271,0.118-0.29c3.14-0.829,6.291-1.757,9.188-3.234c2.837-1.454,5.61-3.302,7.539-5.871
		c0,0,0.163,0.273,0.156,0.269c-3.341,0.236-7.17-1.248-8.512-4.518c-0.049-0.128,0.061-0.273,0.198-0.257
		c2.717,0.386,5.572,0.427,8.128-0.691c0.828-0.357,1.642-0.818,2.328-1.396c0-0.001-0.026,0.203-0.027,0.199
		c-1.535-2.843-3.119-5.854-4.406-8.821c0,0-1.849-4.576-1.849-4.576l-0.92-2.292l-0.799-2.336
		c-0.919-2.659-2.277-6.708-2.957-9.432c-3.101-11.077-4.683-22.774-4.179-34.282c0.249-4.919,0.845-9.927,2.274-14.658l0.057,0.185
		c-0.699-0.595-1.418-1.17-2.181-1.684c-2.273-1.551-4.764-2.812-7.343-3.758c-0.097-0.034-0.148-0.139-0.114-0.236
		c0.025-0.071,0.09-0.118,0.161-0.124c16.62-2.467,34.45,1.08,48.088,11.146c4.501,3.357,8.673,7.279,11.716,12.028
		c0.004-0.004-0.306-0.014-0.283-0.025c2.037-2.267,4.291-4.311,6.652-6.229c5.907-4.761,12.689-8.731,20.163-10.371
		c1.497-0.304,3.012-0.517,4.533-0.606c0.103-0.006,0.19,0.072,0.196,0.175c0.005,0.084-0.047,0.157-0.121,0.185
		c-4.243,2.156-7.919,5.351-10.852,9.085c-0.432,0.53-0.813,1.097-1.244,1.636l-0.293-0.222c1.823-1.994,4.093-3.476,6.47-4.706
		c5.377-2.718,11.472-3.893,17.472-3.754c1.932,0.016,4.053,0.251,5.95,0.52c0.104,0.009,0.182,0.104,0.168,0.208
		c-2.355,2.01-5.162,3.55-7.898,5.025c-2.733,1.416-5.61,2.618-8.626,3.279c-0.103,0.032-0.213-0.032-0.236-0.137
		c-0.021-0.095,0.037-0.19,0.129-0.217c12.607-4.149,27.574-0.666,37.249,8.36c0,0-0.256,0.032-0.256,0.032
		c0.813-1.243,1.812-2.315,2.844-3.362c5.235-5.186,12.13-8.378,19.103-10.491c7.932-2.458,16.844-5.226,24.528-8.295
		c4.445-1.928,11.885-4.791,13.981-9.19c0.036-0.101,0.151-0.155,0.25-0.11c0.068,0.03,0.108,0.098,0.109,0.168
		c-0.06,3.596-1.006,7.386-3.505,10.079l0.034-0.207c1.558,3.128,2.525,6.493,3.239,9.897c3.291,17.161,0.081,35.134-6.736,51.064
		C189.823,81.608,186.517,87.681,182.079,93.104L182.079,93.104z"/>
	<g>
		<path style="fill:#E6E7E8;" d="M60.26,46.651c-12.761-29.002-36.078-31.09-36.078-31.09s-4.083,43.417,15.515,57.32
			c0,0,6.03-6.282,7.621-8.627c0,0-3.601-0.335-6.533-4.188c0,0,4.104-4.858,10.134-4.523c0,0-5.528-0.754-9.548-5.611
			c0,0,4.188,2.596,11.642,2.01c0,0-4.774-1.759-7.035-4.606c0,0,8.459-1.507,12.312,2.094c0,0-3.601-8.124-11.809-11.725
			c0,0,7.621-0.586,12.563,7.957L60.26,46.651z"/>
		<path style="fill:#E6E7E8;" d="M59.044,45.662l1.216,0.989c-9.118-20.722-23.623-27.703-31.163-30
			c1.302,1.056,2.562,2.166,3.765,3.334c1.671,1.623,3.312,3.336,4.651,5.248c2.602,3.715,4.449,8.032,7.678,11.281
			c0.122,0.122,0.079,0.378-0.109,0.412c-1.848,0.332-3.719,0.514-5.576,0.793c3.157,1.962,5.811,4.628,8.167,7.483
			c0.131,0.159,0.054,0.42-0.174,0.421c-3.349,0.015-6.63,1.281-9.566,2.878c1.766-0.096,3.538,0.343,5.311,0.353
			c0.272,0.001,0.344,0.432,0.066,0.484c-1.876,0.354-3.558,1.299-5.322,1.99c1.52,1.747,3.581,2.965,5.559,4.12
			c0.171,0.1,0.157,0.413-0.059,0.45c-1.942,0.336-3.877-0.11-5.822-0.16c0.151,1.501,0.302,3.056-0.073,4.533
			c-0.423,1.664-1.561,2.931-2.911,3.935c-0.175,0.13-0.341-0.031-0.35-0.205c-0.681,0.218-1.327,0.53-1.99,0.801
			c1.976,3.198,4.394,5.977,7.357,8.079c0,0,6.03-6.282,7.621-8.627c0,0-3.601-0.335-6.533-4.188c0,0,4.104-4.858,10.134-4.523
			c0,0-5.528-0.754-9.548-5.611c0,0,4.188,2.596,11.642,2.01c0,0-4.774-1.759-7.035-4.606c0,0,8.459-1.507,12.312,2.094
			c0,0-3.601-8.124-11.809-11.725C46.481,37.706,54.103,37.119,59.044,45.662z"/>
		<path style="fill:#3A271E;" d="M60.185,46.553c-1.707-3.137-3.358-6.306-5.365-9.266c-2.587-3.833-5.623-7.362-9.043-10.456
			c-6.121-5.42-13.593-9.434-21.606-11.147c-0.002,0,0.134-0.111,0.133-0.111c-0.047,5.134,0.112,10.256,0.489,15.346
			c1.147,14.115,3.866,32,14.975,41.862c0.001-0.001-0.167,0.018-0.159,0.014c2.609-2.794,5.323-5.54,7.607-8.609
			c-0.003,0,0.098,0.197,0.088,0.192c-2.731-0.22-5.169-1.994-6.628-4.251c-0.03-0.044-0.022-0.103,0.015-0.138
			c0.52-0.845,1.212-1.548,1.97-2.172c2.287-1.828,5.342-2.867,8.265-2.394l-0.023,0.246c-2.424-0.129-4.645-1.267-6.591-2.635
			c-1.149-0.856-2.18-1.873-3.034-3.019c-0.084-0.104,0.045-0.251,0.159-0.184c3.187,1.332,6.658,1.658,10.072,1.869
			c0.494,0.031,0.991,0.056,1.495,0.123l-0.033,0.239c-2.678-0.928-5.327-2.372-7.089-4.645c-0.063-0.069-0.017-0.187,0.075-0.198
			c2.119-0.464,4.304-0.61,6.467-0.393c2.152,0.215,4.438,0.877,5.951,2.518l-0.197,0.14c-1.635-3.099-3.859-5.889-6.475-8.217
			c-1.582-1.371-3.375-2.566-5.243-3.516c-0.042-0.017-0.027-0.089,0.018-0.089c1.312-0.101,2.629,0.095,3.891,0.463
			c1.747,0.492,3.363,1.392,4.789,2.51c0.584,0.5,1.262,1.14,1.772,1.722c0.186,0.193,0.471,0.539,0.625,0.764
			c0.588,0.751,1.142,1.652,1.596,2.483C59.335,45.73,59.876,46.236,60.185,46.553L60.185,46.553z M60.334,46.749
			c-0.438-0.31-0.977-0.637-1.399-1.028c-0.622-0.909-1.31-1.863-2.023-2.704c-1.804-2.032-4.051-3.703-6.648-4.564
			c-1.213-0.41-2.49-0.679-3.78-0.7c0.003,0.001,0.011-0.1,0.019-0.089c5.299,2.121,9.539,6.563,11.899,11.717
			c0.051,0.121-0.104,0.229-0.2,0.138c-3.526-2.445-8.09-2.343-12.203-2.061c0.002,0.002,0.073-0.209,0.077-0.195
			c1.901,2.078,4.463,3.375,6.979,4.565c0.11,0.046,0.087,0.225-0.033,0.238c-2.972,0.712-6.13,0.333-8.996-0.655
			c-0.953-0.354-1.885-0.769-2.72-1.373l0.16-0.183c2.535,2.764,5.909,4.51,9.47,5.568c0.128,0.033,0.108,0.238-0.024,0.246
			c-0.947,0.103-1.875,0.185-2.766,0.457c-2.736,0.708-5.016,2.311-7.266,4.022c-0.001,0.002,0.004-0.154,0.004-0.154
			c0.889,0.959,1.837,1.845,2.926,2.564c1.076,0.706,2.271,1.281,3.525,1.577c0.09,0.006,0.139,0.121,0.086,0.191
			c-2.299,3.091-5.012,5.832-7.634,8.643c-0.039,0.048-0.113,0.055-0.161,0.015c-2.247-1.303-4.236-3.068-5.941-5.064
			C22.847,54.937,21.914,31.68,24.059,15.55c0.01-0.066,0.069-0.114,0.135-0.111c4.185,0.289,8.22,1.685,11.962,3.528
			C47.376,24.682,55.889,35.07,60.334,46.749L60.334,46.749z"/>
		<path style="fill:#3A271E;" d="M24.27,15.648c-2.581,2.348-6.622-0.357-8.659-2.28c-0.109-0.099,0.033-0.278,0.154-0.193
			c2.394,1.444,5.503,3.663,8.351,2.287C24.229,15.387,24.364,15.55,24.27,15.648L24.27,15.648z"/>
	</g>
	<g>
		<path style="fill:#E6E7E8;" d="M164.48,65.975c4.439,5.199,13.189,10.145,13.189,10.145c23.207-25.997,13.95-57.194,13.95-57.194
			c-33.987,10.779-39.313,35.382-39.313,35.382s4.59-11.318,16.137-10.879c0,0-7.028,1.945-13.178,13.68
			c0,0,5.271-7.823,20.395-6.087c0,0-6.715,6.401-14.37,7.154c0,0,7.781-2.259,12.425,1.694c0,0-2.761-1.443-10.291,2.071
			c0,0,8.597,3.765,16.19,0.628c0,0-8.221,7.593-14.182,3.389L164.48,65.975z"/>
		<path style="fill:#E6E7E8;" d="M164.956,43.674c0.156-0.251,0.312-0.502,0.478-0.747c1.974-2.914,4.501-5.438,7.135-7.754
			c2.629-2.31,5.415-4.488,8.331-6.425c3.069-2.038,6.329-3.773,9.704-5.248c0.616-0.269,1.231-0.539,1.847-0.808
			c-0.428-2.397-0.833-3.766-0.833-3.766c-33.987,10.779-39.313,35.382-39.313,35.382S155.965,45.303,164.956,43.674z"/>
		<path style="fill:#E6E7E8;" d="M164.064,57.662c-1.65,0.188-2.776,0.514-2.776,0.514C162.232,58.083,163.16,57.904,164.064,57.662
			z"/>
		<path style="fill:#E6E7E8;" d="M175.659,51.022c0,0-0.41,0.39-1.14,0.988c1.552-0.589,3.062-1.271,4.48-2.146
			c-3.859-0.791-7.819-1.479-11.766-1.323c-0.221,0.009-0.315-0.272-0.174-0.421c2.401-2.541,5.275-4.606,8.4-6.165
			c-2.794,0.096-5.558,0.546-8.186,1.472c0.382-0.012,0.771-0.014,1.17,0.001c0,0-7.028,1.945-13.178,13.68
			C155.264,57.109,160.536,49.286,175.659,51.022z"/>
		<path style="fill:#E6E7E8;" d="M181.856,69.017c-0.915-0.678-1.414-1.75-1.427-2.88c-0.029-2.361,1.456-4.397,2.353-6.504
			c-1.215,0.345-2.416,0.74-3.65,1.015c-1.324,0.295-2.729,0.481-4.063,0.139c-0.22-0.056-0.222-0.333-0.059-0.45
			c1.617-1.163,3.575-1.787,5.155-2.998c-1.105-0.135-2.213-0.244-3.324-0.318c-3.35-0.223-6.709-0.214-10.065-0.287
			c-0.869,0.36-1.777,0.677-2.712,0.927c2.689-0.306,6.771-0.242,9.649,2.208c0,0-2.761-1.443-10.291,2.071
			c0,0,8.597,3.765,16.19,0.627c0,0-8.221,7.593-14.182,3.389l-0.951,0.018c4.439,5.199,13.189,10.145,13.189,10.145
			c1.938-2.171,3.645-4.378,5.154-6.6C182.479,69.4,182.152,69.237,181.856,69.017z"/>
		<path style="fill:#3A271E;" d="M164.592,66.026c0.562,0.453,1.002,0.818,1.509,1.277c3.628,3.239,7.821,5.694,11.627,8.71
			c0.002,0.001-0.152,0.025-0.152,0.026c9.576-12.412,15.184-26.164,15.35-41.95c0.066-5.059-0.314-10.166-1.426-15.127
			c-0.001,0,0.158,0.083,0.155,0.083c-12.762,4.888-25.055,11.775-33.07,23.157c-2.603,3.716-4.87,7.757-6.159,12.133l-0.235-0.073
			c1.07-3.36,3.523-6.139,6.331-8.198c2.853-2.055,6.428-3.031,9.925-2.758c0.068,0.003,0.121,0.06,0.118,0.128
			c-0.002,0.056-0.04,0.097-0.089,0.114c-1.466,0.597-2.801,1.528-4.044,2.506c-3.742,3.042-6.521,7.055-9.057,11.112
			c0,0.001-0.212-0.126-0.212-0.126c1.058-1.581,2.566-2.77,4.169-3.746c4.072-2.386,8.934-3.003,13.574-2.718
			c0.928,0.102,1.855,0.204,2.777,0.325c0.066,0.009,0.112,0.069,0.104,0.135c-1.905,1.989-4.257,3.549-6.667,4.878
			c-2.424,1.27-5.075,2.191-7.817,2.385c-0.147,0.024-0.199-0.209-0.046-0.241c4.088-1.298,9.217-1.352,12.539,1.719
			c0.116,0.089-0.01,0.281-0.137,0.204c-1.685-0.405-3.476,0.013-5.139,0.402c-1.694,0.428-3.401,1.07-5.042,1.672l-0.003-0.225
			c2.572,0.928,5.293,1.504,8.02,1.686c2.374,0.167,4.815-0.05,7.093-0.743l0.979-0.316c0.117-0.055,0.231,0.118,0.133,0.204
			c-3.555,3.427-9.791,7.073-14.332,3.402c-0.02-0.01,0.072,0.02,0.069,0.019C165.154,66.091,164.898,66.056,164.592,66.026
			L164.592,66.026z M164.367,65.925c0.347-0.025,0.775-0.138,1.139-0.066c4.759,2.612,10.159-0.448,14.023-3.381
			c0,0,0.131,0.204,0.131,0.204c-2.564,1.123-5.413,1.52-8.199,1.333c-2.783-0.198-5.535-0.824-8.087-1.961
			c-0.092-0.04-0.097-0.176-0.008-0.222c0.395-0.22,0.8-0.42,1.201-0.63c2.747-1.228,6.229-2.616,9.206-1.441
			c0,0-0.137,0.204-0.137,0.204c-0.881-0.602-1.808-1.1-2.824-1.436c-3.06-0.954-6.362-0.798-9.487-0.234l-0.046-0.241
			c0.662-0.139,1.333-0.203,1.979-0.401c3.271-0.803,6.301-2.407,9.085-4.28c1.115-0.758,2.203-1.569,3.233-2.438
			c0.002-0.004,0.071,0.212,0.072,0.211c-6.288-0.424-13.1,0.303-18.274,4.198c-0.721,0.547-1.42,1.15-2.004,1.835
			c-0.078,0.117-0.281,0.003-0.212-0.127c2-4.44,4.948-8.583,8.899-11.489c1.332-0.951,2.753-1.805,4.355-2.252
			c-0.001,0,0.03,0.243,0.028,0.242c-7.491-0.053-12.477,4.645-16.016,10.8c-0.041,0.143-0.278,0.074-0.236-0.071
			c1.069-4.505,3.203-8.691,5.767-12.521c7.819-11.454,20.244-19.589,33.629-22.952c0.065-0.025,0.14,0.014,0.156,0.082
			c0.765,2.455,1.238,4.979,1.604,7.518c2.496,17.71-2.509,37.165-15.58,49.793c-0.042,0.041-0.104,0.048-0.153,0.025
			c-2.634-1.025-4.963-2.615-7.208-4.299C168.193,70.186,165.908,68.295,164.367,65.925L164.367,65.925z"/>
		<path style="fill:#3A271E;" d="M184.429,21.444c5.613-2.558,10.548-6.209,13.821-11.468c0.074-0.113,0.265-0.024,0.22,0.107
			c-0.159,0.542-0.376,1.153-0.574,1.69c-1.694,3.858-5.1,6.787-8.882,8.514c-1.445,0.651-2.951,1.165-4.522,1.395
			C184.354,21.703,184.292,21.495,184.429,21.444L184.429,21.444z"/>
	</g>
	<g>
		<path style="fill:#9A9FA8;" d="M83.108,81.329c-1.404-14.561-9.933-14.561-9.933-14.561s2.184,0.52,3.016,2.08
			c0,0-3.588-2.496-8.477-0.156c0,0,4.42-1.248,6.605,1.092c0,0-13.401-5.044-14.059,12.689c0,0,1.734-5.252,9.119-6.293
			c7.385-1.04,9.309,2.444,9.309,2.444s-0.728-2.496-4.785-3.328c0,0,4.889-0.468,8.581,5.252L83.108,81.329z"/>
		<path style="opacity:0.4;fill:#9A9FA8;" d="M60.4,80.455c0.201-0.85,0.514-1.677,0.893-2.459c0.692-1.427,1.619-2.805,2.779-3.894
			c1.134-1.063,2.503-1.85,3.974-2.346c1.485-0.5,3.081-0.712,4.646-0.651c1.623,0.064,3.21,0.437,4.746,0.95
			c-0.575-0.65-1.132-1.316-1.646-2.016c-0.14-0.19,0.092-0.396,0.278-0.362c1.061,0.195,1.999,0.726,2.827,1.403
			c0.835,0.682,1.608,1.477,2.296,2.338c-2.967-6.643-8.02-6.651-8.02-6.651s2.184,0.52,3.016,2.08c0,0-3.588-2.496-8.477-0.156
			c0,0,4.42-1.248,6.605,1.092C74.319,69.784,61.971,65.139,60.4,80.455z"/>
		<path style="opacity:0.6;fill:#9A9FA8;" d="M79.204,70.153c0.467,0.811,0.802,1.7,0.961,2.655
			c0.036,0.214-0.159,0.379-0.362,0.278c-0.948-0.471-1.926-0.861-2.948-1.063c1.144,0.659,2.114,1.647,2.923,2.662
			c0.17,0.213-0.039,0.524-0.299,0.387c-1.396-0.738-2.967-1.104-4.528-1.278c-2.473-0.276-5.093-0.196-7.526,0.35
			c-2.295,0.514-4.59,1.577-5.851,3.657c-0.101,0.166-0.416,0.161-0.45-0.059c-0.048-0.306-0.065-0.611-0.068-0.915
			c-0.431,1.561-0.713,3.425-0.796,5.646c0,0,1.734-5.252,9.119-6.293c7.385-1.04,9.309,2.444,9.309,2.444s-0.728-2.496-4.785-3.328
			c0,0,4.889-0.468,8.581,5.252l0.624,0.78C82.567,75.716,80.966,72.272,79.204,70.153z"/>
		<path style="fill:#5A5F66;" d="M83.062,81.215c-0.941-4.516-1.93-9.423-5.671-12.487c-1.213-0.964-2.662-1.7-4.215-1.892
			l0.016-0.134c1.224,0.283,2.493,0.946,3.069,2.115c0.036,0.07-0.052,0.14-0.112,0.094c-2.618-1.329-5.717-1.236-8.415-0.179
			c0,0-0.031-0.082-0.031-0.081c2.156-0.724,5.143-0.891,6.675,1.102c0.042,0.054-0.025,0.128-0.082,0.095
			c-0.916-0.232-1.857-0.369-2.791-0.421c-8.088-0.551-10.671,6.151-11.193,13.049c0-0.001-0.103-0.017-0.1-0.019
			c0.585-1.741,1.805-3.239,3.296-4.325c3.432-2.539,9.328-3.335,13.198-1.386c0.807,0.445,1.574,1.036,2.028,1.854
			c-0.001-0.002-0.098,0.044-0.096,0.038c-0.952-1.788-2.889-2.706-4.744-3.288c-0.061-0.007-0.061-0.099-0.001-0.107
			C77.892,74.785,81.428,77.866,83.062,81.215L83.062,81.215z M83.154,81.443c-0.261-0.237-0.596-0.503-0.828-0.793
			c-1.973-2.758-4.926-5.078-8.418-5.3c0,0,0.006-0.107,0.006-0.107c1.022,0.121,2.031,0.422,2.909,0.976
			c0.869,0.553,1.658,1.364,1.914,2.389c0.011,0.026-0.001,0.057-0.028,0.068c-0.028,0.01-0.052-0.003-0.067-0.026
			c-0.541-0.701-1.312-1.198-2.113-1.545c-3.76-1.538-9.354-0.776-12.727,1.444c-1.474,0.975-2.736,2.33-3.493,3.939
			c-0.011,0.057-0.108,0.042-0.101-0.017c-0.054-4.671,1.03-10.346,5.593-12.692c2.642-1.339,5.881-1.168,8.541-0.057
			c0.001,0-0.072,0.108-0.072,0.108c-1.857-1.447-4.306-1.418-6.544-1.096c-0.049,0.023-0.085-0.064-0.031-0.081
			c1.945-1.125,4.352-1.519,6.521-0.858c0.721,0.221,1.417,0.526,2.018,0.991l-0.11,0.098c-0.328-0.516-0.78-0.936-1.295-1.268
			c-0.516-0.33-1.085-0.59-1.671-0.782c-0.037-0.007-0.061-0.043-0.054-0.079c0.006-0.034,0.037-0.057,0.07-0.055
			c1.634,0.016,3.195,0.692,4.514,1.642C81.625,71.367,83.041,76.701,83.154,81.443L83.154,81.443z"/>
	</g>
	<g>
		<path style="fill:#9A9FA8;" d="M123.807,81.329c1.404-14.561,9.933-14.561,9.933-14.561s-2.184,0.52-3.016,2.08
			c0,0,3.588-2.496,8.477-0.156c0,0-4.42-1.248-6.605,1.092c0,0,13.401-5.044,14.059,12.689c0,0-1.734-5.252-9.119-6.293
			c-7.385-1.04-9.309,2.444-9.309,2.444s0.728-2.496,4.784-3.328c0,0-4.888-0.468-8.581,5.252L123.807,81.329z"/>
		<path style="opacity:0.4;fill:#9A9FA8;" d="M146.515,80.455c-0.201-0.85-0.514-1.677-0.893-2.459
			c-0.692-1.427-1.619-2.805-2.779-3.894c-1.134-1.063-2.503-1.85-3.974-2.346c-1.485-0.5-3.081-0.712-4.646-0.651
			c-1.623,0.064-3.21,0.437-4.746,0.95c0.575-0.65,1.132-1.316,1.646-2.016c0.14-0.19-0.092-0.396-0.278-0.362
			c-1.062,0.195-1.999,0.726-2.828,1.403c-0.835,0.682-1.608,1.477-2.296,2.338c2.967-6.643,8.019-6.651,8.019-6.651
			s-2.184,0.52-3.016,2.08c0,0,3.588-2.496,8.477-0.156c0,0-4.42-1.248-6.605,1.092C132.596,69.784,144.944,65.139,146.515,80.455z"
			/>
		<path style="opacity:0.6;fill:#9A9FA8;" d="M127.711,70.153c-0.466,0.811-0.802,1.7-0.961,2.655
			c-0.036,0.214,0.159,0.379,0.362,0.278c0.948-0.471,1.926-0.861,2.948-1.063c-1.144,0.659-2.114,1.647-2.923,2.662
			c-0.17,0.213,0.039,0.524,0.299,0.387c1.396-0.738,2.967-1.104,4.528-1.278c2.472-0.276,5.094-0.196,7.526,0.35
			c2.295,0.514,4.59,1.577,5.851,3.657c0.101,0.166,0.416,0.161,0.45-0.059c0.048-0.306,0.065-0.611,0.068-0.915
			c0.431,1.561,0.713,3.425,0.796,5.646c0,0-1.734-5.252-9.119-6.293c-7.385-1.04-9.309,2.444-9.309,2.444s0.728-2.496,4.784-3.328
			c0,0-4.888-0.468-8.581,5.252l-0.624,0.78C124.349,75.716,125.949,72.272,127.711,70.153z"/>
		<path style="fill:#5A5F66;" d="M123.761,81.443c0.113-4.742,1.529-10.076,5.465-13.102c1.319-0.95,2.88-1.626,4.514-1.642
			c0.038-0.002,0.071,0.029,0.071,0.067c0,0.033-0.023,0.061-0.055,0.067c-0.585,0.192-1.155,0.452-1.671,0.782
			c-0.515,0.332-0.967,0.752-1.295,1.268l-0.11-0.098c0.602-0.464,1.297-0.77,2.018-0.991c2.169-0.661,4.575-0.267,6.52,0.858
			c0.049,0.023,0.024,0.099-0.031,0.081c-2.237-0.322-4.686-0.351-6.544,1.096c0,0-0.073-0.108-0.072-0.108
			c2.66-1.111,5.899-1.281,8.541,0.057c4.563,2.347,5.646,8.02,5.593,12.692c0.005,0.058-0.086,0.075-0.1,0.017
			c-0.757-1.609-2.019-2.965-3.493-3.939c-3.366-2.218-8.969-2.984-12.727-1.445c-0.805,0.349-1.58,0.849-2.121,1.556
			c-0.032,0.045-0.114,0.003-0.087-0.052c0.41-1.541,1.874-2.566,3.321-3.042c0.489-0.16,0.993-0.262,1.502-0.323
			c0,0,0.006,0.107,0.006,0.107c-3.492,0.222-6.445,2.542-8.418,5.3C124.357,80.94,124.022,81.207,123.761,81.443L123.761,81.443z
			 M123.854,81.215c1.3-2.592,3.568-4.986,6.505-5.753c0.868-0.232,1.773-0.348,2.665-0.218c0.029,0.004,0.05,0.032,0.046,0.061
			c-1.823,0.655-3.841,1.496-4.791,3.333c0.002,0.006-0.095-0.04-0.096-0.038c0.454-0.818,1.221-1.41,2.028-1.854
			c3.872-1.948,9.76-1.155,13.198,1.386c1.491,1.086,2.71,2.584,3.296,4.325c0.003,0.002-0.1,0.018-0.1,0.019
			c-0.526-6.904-3.102-13.598-11.193-13.049c-0.934,0.052-1.875,0.189-2.791,0.421c-0.058,0.036-0.124-0.044-0.082-0.095
			c1.533-1.993,4.518-1.825,6.675-1.102c0,0-0.031,0.081-0.031,0.081c-2.697-1.057-5.796-1.15-8.414,0.178
			c-0.059,0.051-0.15-0.028-0.113-0.093c0.576-1.169,1.845-1.831,3.069-2.115l0.016,0.134c-1.554,0.193-3.003,0.928-4.215,1.892
			C125.783,71.793,124.796,76.697,123.854,81.215L123.854,81.215z"/>
	</g>
	<g>
		<g>
			<path style="fill:#3A271E;" d="M101.41,130.499c0.237,1.985,0.372,3.922,0.474,5.921c0.053,2.188-0.865,4.346-2.48,5.847
				c-3.191,2.805-7.935,3.733-11.898,2.15c-2.58-1.026-4.76-2.727-6.504-4.722c-0.068-0.077-0.06-0.195,0.018-0.262
				c0.067-0.059,0.165-0.06,0.233-0.009c2.103,1.559,4.337,2.891,6.716,3.62c2.514,0.724,5.186,0.617,7.575-0.446
				c2.038-0.869,3.924-2.287,4.644-4.477c0.434-1.177,0.397-2.435,0.492-3.686c0.1-1.312,0.195-2.624,0.36-3.936
				C101.059,130.29,101.392,130.285,101.41,130.499L101.41,130.499z"/>
			<path style="fill:#3A271E;" d="M101.496,130.499c0.244,1.948,0.353,3.94,0.486,5.887c0.13,1.754,0.981,3.462,2.307,4.59
				c2.839,2.322,6.75,3.133,10.277,2.068c2.379-0.729,4.614-2.061,6.716-3.62c0.082-0.061,0.199-0.044,0.26,0.038
				c0.053,0.071,0.047,0.169-0.009,0.233c-1.744,1.995-3.924,3.696-6.504,4.722c-2.781,1.089-6.008,1.018-8.752-0.18
				c-2.47-1.051-4.731-2.99-5.371-5.679c-0.385-1.348-0.224-2.764-0.14-4.123c0.1-1.312,0.195-2.624,0.36-3.936
				C101.151,130.29,101.474,130.285,101.496,130.499L101.496,130.499z"/>
		</g>
		<g>
			<path style="fill:#CB8C84;" d="M97.334,128.426c0,0,2.297,4.599,3.818,4.599c1.52,0,2.803-4.086,4.038-4.418
				c1.235-0.333,4.276,1.283,6.176-3.563c1.9-4.846-8.599-5.653-11.212-5.416c-2.613,0.238-8.694,1.188-8.314,4.418
				C92.22,127.276,94.151,128.71,97.334,128.426z"/>
			<path style="opacity:0.5;fill:#CB8C84;" d="M100.247,119.621c-0.243,0.029-0.486,0.065-0.728,0.114
				c-0.794,0.158-1.596,0.454-2.078,1.147c-0.468,0.673-0.324,1.435,0.24,2.001c0.886,0.89,2.315,1.141,3.507,1.307
				c1.119,0.156,2.28,0.271,3.411,0.284c1.717,0.019,4.768-0.504,4.322-2.899c-0.055-0.296-0.177-0.548-0.342-0.768
				C105.774,119.72,101.808,119.5,100.247,119.621z"/>
			<path style="opacity:0.7;fill:#CB8C84;" d="M106.894,120.28c0.761,0.292,1.507,0.637,2.207,1.051
				c0.642,0.379,1.269,0.873,1.588,1.566c0.494,1.072,0.206,2.396-0.847,2.993c-0.943,0.535-2.107,0.548-3.161,0.583
				c-1.769,0.058-3.414,0.827-5.171,0.975c-0.446,0.038-0.888,0.035-1.322-0.086c-0.375-0.105-0.727-0.279-1.075-0.447
				c-0.8-0.387-1.604-0.623-2.476-0.784c-1.153-0.214-2.386-0.448-3.294-1.252c-0.892-0.789-0.947-2-0.408-3.013
				c0.042-0.079,0.092-0.153,0.14-0.229c-0.841,0.612-1.354,1.399-1.235,2.41c0.38,3.231,2.311,4.665,5.494,4.38
				c0,0,2.297,4.599,3.818,4.599c1.52,0,2.803-4.086,4.038-4.418c1.235-0.333,4.276,1.283,6.176-3.563
				C112.381,122.456,109.861,121.021,106.894,120.28z"/>
			<path style="fill:#77413D;" d="M97.375,128.352c0.882,1.349,1.724,2.842,2.916,3.94c0.347,0.288,0.736,0.582,1.172,0.363
				c0.845-0.494,1.452-1.553,2.024-2.377c1.557-2.569,1.662-1.723,4.207-2.023c1.58-0.279,2.576-1.551,3.297-2.96
				c0.546-0.918,0.576-2.058-0.2-2.837c-0.725-0.742-1.761-1.12-2.772-1.418c-3.071-0.827-6.396-1.233-9.573-0.776
				c-2.117,0.338-6.215,0.867-6.405,3.528c0.085,2.587,1.96,4.23,4.469,4.44C96.774,128.269,97.112,128.302,97.375,128.352
				L97.375,128.352z M97.293,128.499c-2.332,0.837-4.884-0.581-5.394-3.016c-0.302-1.094-0.536-2.427,0.295-3.358
				c1.583-1.738,3.946-2.221,6.124-2.695c3.7-0.71,10.181-0.269,12.813,2.737c0.813,0.901,0.787,2.28,0.319,3.325
				c-0.4,1.074-0.973,2.156-1.979,2.804c-1.232,0.903-2.795,0.498-4.161,0.489c-0.728,0.201-1.12,1.066-1.53,1.674
				c-1.518,2.817-2.68,4.233-4.937,0.929c-0.599-0.896-1.113-1.843-1.543-2.828l-0.02-0.048
				C97.283,128.504,97.238,128.456,97.293,128.499L97.293,128.499z"/>
			<path style="fill:#77413D;" d="M95.524,127.454c1.069-0.294,1.909,0.66,2.381,1.504c0.055,0.088,0.028,0.204-0.06,0.258
				c-0.107,0.069-0.257,0.005-0.282-0.119c-0.142-0.692-0.693-1.187-1.365-1.33c-0.218-0.052-0.42-0.083-0.673-0.094
				c-0.06-0.003-0.106-0.053-0.104-0.113C95.423,127.501,95.47,127.462,95.524,127.454L95.524,127.454z"/>
			<path style="fill:#77413D;" d="M104.03,129.442c0.602-1.223,1.836-1.96,3.194-1.621c0.102,0.014,0.174,0.109,0.159,0.211
				c-0.016,0.126-0.16,0.199-0.271,0.141c-1.139-0.594-2.486,0.186-2.734,1.396C104.315,129.844,103.901,129.694,104.03,129.442
				L104.03,129.442z"/>
		</g>
	</g>
	<g>
		<path style="fill:#231F20;" d="M5.143,136.671c5.314-4.267,11.625-7.145,18.081-9.228c16.321-5.118,34.055-4.037,50.303,0.824
			c2.884,0.833,6.789,2.272,9.625,3.333c0.064,0.024,0.096,0.095,0.073,0.158c-0.024,0.065-0.096,0.097-0.16,0.072
			c-6.362-2.333-12.903-4.163-19.551-5.399C43.804,122.634,21.675,125.166,5.143,136.671L5.143,136.671z"/>
		<path style="fill:#231F20;" d="M17.389,159.696c11.106-14.718,28.249-25.078,46.633-27.26c6.129-0.702,12.344-0.514,18.416,0.467
			c0.067,0.011,0.113,0.074,0.102,0.141c-0.011,0.066-0.073,0.111-0.139,0.102c-6.076-0.803-12.241-0.894-18.309-0.14
			C45.807,135.258,28.937,145.82,17.389,159.696L17.389,159.696z"/>
		<path style="fill:#231F20;" d="M48.269,155.321c7.609-9.7,21.117-21.918,34.152-21.591c0.068,0.003,0.121,0.06,0.119,0.128
			c-0.002,0.066-0.057,0.118-0.122,0.119C69.221,134.467,56.892,146.452,48.269,155.321L48.269,155.321z"/>
	</g>
	<g>
		<path style="fill:#231F20;" d="M197.424,136.74c-5.423-4.038-11.759-6.762-18.199-8.721c-12.956-3.907-26.867-4.065-40.113-1.588
			c-6.648,1.235-13.189,3.066-19.551,5.399c-0.064,0.025-0.137-0.007-0.161-0.072c-0.023-0.064,0.009-0.135,0.073-0.158
			c2.863-1.086,6.743-2.481,9.625-3.333c16.247-4.861,33.982-5.942,50.303-0.824c4.863,1.547,9.584,3.59,13.923,6.283
			c1.442,0.9,2.851,1.854,4.159,2.944C197.529,136.707,197.468,136.778,197.424,136.74L197.424,136.74z"/>
		<path style="fill:#231F20;" d="M185.182,159.736c-11.575-14.164-28.396-24.387-46.647-26.729
			c-6.067-0.754-12.233-0.663-18.309,0.14c-0.067,0.009-0.13-0.037-0.139-0.105c-0.009-0.066,0.037-0.128,0.102-0.139
			c6.071-0.98,12.287-1.169,18.415-0.467c12.28,1.423,23.981,6.582,33.697,14.16c3.629,2.857,7.025,6.014,10.059,9.496
			c1.01,1.16,1.988,2.348,2.877,3.604C185.263,159.731,185.206,159.771,185.182,159.736L185.182,159.736z"/>
		<path style="fill:#231F20;" d="M154.315,155.355c-8.492-9.009-21.138-20.917-34.106-21.379c-0.069,0-0.125-0.058-0.122-0.127
			c0.002-0.065,0.055-0.117,0.119-0.12C132.924,133.283,147.168,145.824,154.315,155.355L154.315,155.355z"/>
	</g>
	<g>
		<g>
			<defs>
				<path id="SVGID_1_" d="M88.505,118.989c0,0,4.425-19.163-9.062-28.667c-13.335-9.397-27.708,7.232-23.961,19.953
					c3.747,12.721,17.426,12.198,23.787,10.107C85.629,118.292,88.505,118.989,88.505,118.989z"/>
			</defs>
			<use xlink:href="#SVGID_1_"  style="overflow:visible;fill:#FFFFFF;"/>
			<clipPath id="SVGID_00000183248931839288861880000007926303589938619541_">
				<use xlink:href="#SVGID_1_"  style="overflow:visible;"/>
			</clipPath>
			<g style="clip-path:url(#SVGID_00000183248931839288861880000007926303589938619541_);">
				<ellipse style="fill:#1C75BC;" cx="73.453" cy="106.859" rx="15.058" ry="15.052"/>
				<ellipse style="fill:#1C75BC;" cx="73.453" cy="106.859" rx="15.058" ry="15.052"/>
				<path style="opacity:0.5;fill:#1C75BC;" d="M73.453,118.002c-7.653,0-13.968-5.709-14.928-13.098
					c-0.083,0.64-0.13,1.292-0.13,1.955c0,8.313,6.742,15.052,15.058,15.052s15.058-6.739,15.058-15.052
					c0-0.663-0.047-1.314-0.131-1.955C87.421,112.294,81.106,118.002,73.453,118.002z"/>
				<path style="fill:#1C75BC;" d="M88.884,106.859c0.136,6.138-3.741,12.117-9.45,14.434c-10.189,4.261-21.535-3.396-21.381-14.434
					c0.015-6.057,3.944-11.834,9.572-14.063C77.596,88.721,88.785,96.044,88.884,106.859L88.884,106.859z M88.138,106.859
					c0.163-8.085-6.571-14.976-14.685-14.911c-10.495-0.018-17.705,10.905-13.528,20.513c1.5,3.518,4.428,6.388,7.969,7.815
					C77.352,124.155,88.064,117.116,88.138,106.859L88.138,106.859z"/>
				<path style="fill:#1C75BC;" d="M88.884,106.859c0.136,6.138-3.741,12.117-9.45,14.434c-10.189,4.261-21.535-3.396-21.381-14.434
					c0.015-6.057,3.944-11.834,9.572-14.063C77.596,88.721,88.785,96.044,88.884,106.859L88.884,106.859z M88.138,106.859
					c0.163-8.085-6.571-14.976-14.685-14.911c-10.495-0.018-17.705,10.905-13.528,20.513c1.5,3.518,4.428,6.388,7.969,7.815
					C77.352,124.155,88.064,117.116,88.138,106.859L88.138,106.859z"/>
				<ellipse style="fill:#193A51;" cx="73.453" cy="106.859" rx="11.931" ry="11.927"/>
				<ellipse style="fill:#193A51;" cx="73.453" cy="106.859" rx="11.931" ry="11.927"/>
				<path style="opacity:0.6;fill:#193A51;" d="M73.453,116.744c-6.245,0-11.366-4.797-11.885-10.905
					c-0.029,0.337-0.046,0.677-0.046,1.021c0,6.587,5.342,11.927,11.931,11.927c6.589,0,11.931-5.34,11.931-11.927
					c0-0.344-0.018-0.684-0.046-1.021C84.819,111.947,79.698,116.744,73.453,116.744z"/>
				<path style="fill:#193A51;" d="M85.637,106.859c0.081,8.674-8.857,14.667-16.856,11.272c-12.139-5.437-8.638-23.001,4.671-23.35
					C80.036,94.696,85.665,100.275,85.637,106.859L85.637,106.859z M85.13,106.859c0.026-10.446-12.598-15.72-19.998-8.317
					c-7.293,7.417-2.092,19.94,8.32,19.944C79.754,118.526,85.164,113.17,85.13,106.859L85.13,106.859z"/>
				<path style="fill:#193A51;" d="M85.637,106.859c0.081,8.674-8.857,14.667-16.856,11.272c-12.139-5.437-8.638-23.001,4.671-23.35
					C80.036,94.696,85.665,100.275,85.637,106.859L85.637,106.859z M85.13,106.859c0.026-10.446-12.598-15.72-19.998-8.317
					c-7.293,7.417-2.092,19.94,8.32,19.944C79.754,118.526,85.164,113.17,85.13,106.859L85.13,106.859z"/>
				<ellipse style="fill:#2C2B2D;" cx="73.453" cy="106.859" rx="8.577" ry="8.573"/>
				<path style="fill:#231F20;" d="M73.453,110.939c-3.959,0-7.289-2.682-8.277-6.327c-0.194,0.716-0.3,1.469-0.3,2.247
					c0,4.735,3.84,8.574,8.577,8.574c4.737,0,8.577-3.839,8.577-8.574c0-0.778-0.105-1.531-0.3-2.247
					C80.742,108.257,77.411,110.939,73.453,110.939z"/>
				<circle style="fill:#FFFFFF;" cx="80.141" cy="101.65" r="3.168"/>
				<path style="fill:#FFFFFF;" d="M69.832,114.252c0,1.059-0.859,1.917-1.918,1.917c-1.059,0-1.918-0.858-1.918-1.917
					c0-1.059,0.858-1.917,1.918-1.917C68.973,112.336,69.832,113.194,69.832,114.252z"/>
			</g>
		</g>
		<path style="fill:#231F20;" d="M88.408,118.831c-0.033,0.003-0.065,0.034-0.07,0.059c0.021-0.078,0.056-0.275,0.075-0.359
			c2.07-10.707-0.842-24.089-11.659-28.87c-11.908-5.196-23.829,9.553-20.405,20.838c2.343,8.434,10.495,11.422,18.578,10.331
			c4.482-0.525,8.789-2.987,13.396-2.082c0,0,0.11,0.027,0.11,0.027l0.056,0.015c0,0,0.041,0.007-0.002,0.004
			C88.458,118.796,88.426,118.811,88.408,118.831L88.408,118.831z M88.602,119.146c-0.068,0.035-0.161,0.022-0.237,0.014
			c-2.224-0.077-4.422,0.415-6.57,0.957c-2.221,0.627-4.424,1.464-6.744,1.694c-10.298,1.352-19.525-3.45-20.939-14.382
			C52.675,95.307,65.27,81.718,77.446,88.227c9.749,5.452,12.851,16.876,11.736,27.366c-0.098,1.056-0.259,2.176-0.453,3.221
			C88.702,118.921,88.694,119.072,88.602,119.146L88.602,119.146z"/>
	</g>
	<g>
		<g>
			<defs>
				<path id="SVGID_00000098214615653669424030000016702066014002708100_" d="M117.285,118.989c0,0-4.425-19.163,9.062-28.667
					c13.335-9.397,27.708,7.232,23.961,19.953c-3.747,12.721-17.426,12.198-23.787,10.107
					C120.161,118.292,117.285,118.989,117.285,118.989z"/>
			</defs>
			<use xlink:href="#SVGID_00000098214615653669424030000016702066014002708100_"  style="overflow:visible;fill:#FFFFFF;"/>
			<clipPath id="SVGID_00000166642377569534574500000006682410083156801683_">
				<use xlink:href="#SVGID_00000098214615653669424030000016702066014002708100_"  style="overflow:visible;"/>
			</clipPath>
			<g style="clip-path:url(#SVGID_00000166642377569534574500000006682410083156801683_);">
				<ellipse style="fill:#1C75BC;" cx="132.304" cy="106.859" rx="15.058" ry="15.052"/>
				<ellipse style="fill:#1C75BC;" cx="132.304" cy="106.859" rx="15.058" ry="15.052"/>
				<path style="opacity:0.5;fill:#1C75BC;" d="M132.304,118.002c-7.653,0-13.968-5.709-14.928-13.098
					c-0.083,0.64-0.131,1.292-0.131,1.955c0,8.313,6.742,15.052,15.058,15.052c8.316,0,15.058-6.739,15.058-15.052
					c0-0.663-0.047-1.314-0.131-1.955C146.272,112.294,139.957,118.002,132.304,118.002z"/>
				<path style="fill:#1C75BC;" d="M147.735,106.859c0.136,6.138-3.741,12.117-9.45,14.434
					c-10.189,4.261-21.535-3.396-21.381-14.434c0.015-6.057,3.944-11.834,9.572-14.063
					C136.447,88.721,147.637,96.044,147.735,106.859L147.735,106.859z M146.989,106.859c0.163-8.085-6.571-14.976-14.685-14.911
					c-10.495-0.018-17.705,10.905-13.528,20.513c1.5,3.518,4.428,6.388,7.969,7.815
					C136.204,124.155,146.915,117.116,146.989,106.859L146.989,106.859z"/>
				<path style="fill:#1C75BC;" d="M147.735,106.859c0.136,6.138-3.741,12.117-9.45,14.434
					c-10.189,4.261-21.535-3.396-21.381-14.434c0.015-6.057,3.944-11.834,9.572-14.063
					C136.447,88.721,147.637,96.044,147.735,106.859L147.735,106.859z M146.989,106.859c0.163-8.085-6.571-14.976-14.685-14.911
					c-10.495-0.018-17.705,10.905-13.528,20.513c1.5,3.518,4.428,6.388,7.969,7.815
					C136.204,124.155,146.915,117.116,146.989,106.859L146.989,106.859z"/>
				<ellipse style="fill:#193A51;" cx="132.304" cy="106.859" rx="11.931" ry="11.927"/>
				<ellipse style="fill:#193A51;" cx="132.304" cy="106.859" rx="11.931" ry="11.927"/>
				<path style="opacity:0.6;fill:#193A51;" d="M132.304,116.744c-6.245,0-11.366-4.797-11.885-10.905
					c-0.029,0.337-0.046,0.677-0.046,1.021c0,6.587,5.342,11.927,11.931,11.927c6.589,0,11.931-5.34,11.931-11.927
					c0-0.344-0.018-0.684-0.047-1.021C143.67,111.947,138.549,116.744,132.304,116.744z"/>
				<path style="fill:#193A51;" d="M144.488,106.859c0.081,8.674-8.857,14.667-16.856,11.272
					c-12.139-5.437-8.638-23.001,4.671-23.35C138.887,94.696,144.516,100.275,144.488,106.859L144.488,106.859z M143.982,106.859
					c0.026-10.446-12.598-15.72-19.998-8.317c-7.293,7.417-2.092,19.94,8.32,19.944C138.605,118.526,144.015,113.17,143.982,106.859
					L143.982,106.859z"/>
				<path style="fill:#193A51;" d="M144.488,106.859c0.081,8.674-8.857,14.667-16.856,11.272
					c-12.139-5.437-8.638-23.001,4.671-23.35C138.887,94.696,144.516,100.275,144.488,106.859L144.488,106.859z M143.982,106.859
					c0.026-10.446-12.598-15.72-19.998-8.317c-7.293,7.417-2.092,19.94,8.32,19.944C138.605,118.526,144.015,113.17,143.982,106.859
					L143.982,106.859z"/>
				<ellipse style="fill:#2C2B2D;" cx="132.304" cy="106.859" rx="8.577" ry="8.573"/>
				<path style="fill:#231F20;" d="M132.304,110.939c-3.959,0-7.289-2.682-8.277-6.327c-0.194,0.716-0.3,1.469-0.3,2.247
					c0,4.735,3.84,8.574,8.577,8.574c4.737,0,8.577-3.839,8.577-8.574c0-0.778-0.105-1.531-0.3-2.247
					C139.593,108.257,136.263,110.939,132.304,110.939z"/>
				<circle style="fill:#FFFFFF;" cx="138.992" cy="101.65" r="3.168"/>
				<path style="fill:#FFFFFF;" d="M128.683,114.252c0,1.059-0.858,1.917-1.917,1.917c-1.059,0-1.918-0.858-1.918-1.917
					c0-1.059,0.858-1.917,1.918-1.917C127.824,112.336,128.683,113.194,128.683,114.252z"/>
			</g>
		</g>
		<path style="fill:#231F20;" d="M117.188,119.146c-0.089-0.076-0.105-0.221-0.127-0.331c-0.193-1.046-0.354-2.165-0.453-3.221
			c-1.116-10.488,1.989-21.917,11.736-27.366c12.175-6.508,24.771,7.079,23.334,19.203c-1.417,10.935-10.638,15.732-20.939,14.382
			c-2.32-0.231-4.523-1.067-6.744-1.694c-2.148-0.542-4.346-1.034-6.571-0.957C117.352,119.166,117.254,119.183,117.188,119.146
			L117.188,119.146z M117.382,118.831c-0.018-0.02-0.05-0.035-0.078-0.036c-0.044,0.003-0.002-0.004-0.002-0.004l0.056-0.015
			l0.11-0.027c4.608-0.905,8.913,1.556,13.396,2.082c8.077,1.092,16.24-1.901,18.577-10.331
			c3.424-11.284-8.497-26.035-20.405-20.838c-10.819,4.784-13.729,18.16-11.659,28.87c0,0,0.043,0.209,0.043,0.209l0.023,0.104
			l0.01,0.046C117.447,118.865,117.415,118.835,117.382,118.831L117.382,118.831z"/>
	</g>
</g>
</svg>
